PathFileType	4	(X/Y/Z)	E:\Qualisys_Data\Carbon_Farble_Plate\Data\Amateur_Runner\S14\T1\S14T1V25_c3d.trc
DataRate	CameraRate	NumFrames	NumMarkers	Units	OrigDataRate	OrigDataStartFrame	OrigNumFrames
200.000000	200.000000	5	39	mm	200.000000	227	303
Frame#	Time	LSHO			RSHO			LICST			RICST			LASIS			LHEEL			RASIS			LTROC			RTROC			SACR			LTH1			LSK4			LTH2			LTH3			RHM5			LSK2			LTH4			RTH1			LTOE			RTH2			RTH3			RTH4			LLEP			RLEP			LSK1			LSK3			RSK1			LHM5			RSK2			LFT1			RSK3			RSK4			LLME			RLME			RTOE			RHEEL			RFT1			RFT2			LFT2			
		X1	Y1	Z1	X2	Y2	Z2	X3	Y3	Z3	X4	Y4	Z4	X5	Y5	Z5	X6	Y6	Z6	X7	Y7	Z7	X8	Y8	Z8	X9	Y9	Z9	X10	Y10	Z10	X11	Y11	Z11	X12	Y12	Z12	X13	Y13	Z13	X14	Y14	Z14	X15	Y15	Z15	X16	Y16	Z16	X17	Y17	Z17	X18	Y18	Z18	X19	Y19	Z19	X20	Y20	Z20	X21	Y21	Z21	X22	Y22	Z22	X23	Y23	Z23	X24	Y24	Z24	X25	Y25	Z25	X26	Y26	Z26	X27	Y27	Z27	X28	Y28	Z28	X29	Y29	Z29	X30	Y30	Z30	X31	Y31	Z31	X32	Y32	Z32	X33	Y33	Z33	X34	Y34	Z34	X35	Y35	Z35	X36	Y36	Z36	X37	Y37	Z37	X38	Y38	Z38	X39	Y39	Z39	

228	1.135	1788.100341796875	1422.324340820312	-540.9485473632812	1903.21630859375	1422.06982421875	-272.1961364746094	1831.080932617188	966.4478149414062	-510.4639282226562	1881.576416015625	968.9893798828124	-240.3668212890625	1877.635131835938	918.6157836914062	-484.5020751953125	2025.296508789062	61.20142364501953	-373.1870422363281	1901.908447265625	924.3113403320312	-257.3791198730469	1744.640747070312	841.7817993164062	-526.1235961914062	1749.84765625	886.4780883789062	-192.3735961914062	1717.205444335938	968.7144165039062	-364.77294921875	1906.546508789062	635.5411987304688	-530.8848876953125	1963.55029296875	269.4889221191406	-458.7472839355469	1844.426391601562	610.0962524414062	-491.2946166992188	1961.176147460938	556.0596313476562	-502.0193481445312	1213.573974609375	370.8188171386719	-228.7221527099609	1939.790161132812	364.6499328613281	-478.0897216796875	1892.223999023438	527.142578125	-471.7282104492188	1812.148193359375	619.44384765625	-203.0626373291016	2259.351806640625	150.4978332519531	-443.3553466796875	1739.475708007812	644.989990234375	-188.1687469482422	1781.278686523438	524.0178833007812	-220.8757629394531	1702.715209960938	550.7807006835938	-203.8966217041016	1966.258911132812	485.3323669433594	-488.1444396972656	1695.41943359375	480.4814147949219	-206.2540435791016	2018.780395507812	382.6437377929688	-488.8399047851562	2041.698608398438	284.3354797363281	-472.9454040527344	1584.968872070312	434.6730346679688	-208.2101440429688	2199.774169921875	94.82559204101562	-485.694580078125	1578.318237304688	520.80908203125	-202.7347412109375	2051.373779296875	48.84013748168945	-348.559814453125	1481.932983398438	435.3534851074219	-225.5144500732422	1483.328857421875	515.030517578125	-220.45263671875	2058.383544921875	102.1276245117188	-440.851806640625	1313.855590820312	482.2748107910156	-248.5152130126953	1212.206909179688	295.7284545898438	-286.7793579101562	1306.889038085938	537.6581420898438	-307.3583984375	1280.819702148438	529.4205322265625	-339.7641296386719	1284.717529296875	545.774658203125	-281.024658203125	2036.582153320312	34.15053176879883	-397.3711242675781
229	1.14	1809.511962890625	1416.549438476562	-542.6160278320312	1923.879272460938	1417.538208007812	-272.8206787109375	1849.473999023438	961.73291015625	-510.0909423828125	1902.760131835938	964.942138671875	-240.5726776123047	1897.590576171875	914.64306640625	-484.9214782714844	2034.179931640625	62.84276962280273	-371.6671142578125	1922.910766601562	920.1781616210938	-257.943359375	1763.697998046875	837.3839721679688	-524.7606201171875	1772.336059570312	881.4694213867188	-191.3607788085938	1737.63427734375	964.3680419921876	-363.7236938476562	1928.194091796875	632.674072265625	-529.1694946289062	1979.750732421875	265.2663269042969	-458.079345703125	1865.469116210938	606.4965209960938	-491.2074279785156	1982.15869140625	552.7665405273438	-500.592041015625	1240.995727539062	376.3844909667969	-228.5161743164062	1957.842651367188	360.8182373046875	-477.8865051269531	1913.162109375	523.278564453125	-472.1832580566406	1837.350219726562	614.5098266601562	-202.6227569580078	2272.85498046875	137.7960662841797	-438.6774597167969	1764.424438476562	638.80419921875	-187.2201538085938	1808.682861328125	518.5747680664062	-220.0539093017578	1729.4033203125	544.00244140625	-203.1846008300781	1987.380859375	481.8254089355469	-487.8804321289062	1723.713500976562	474.3392333984375	-205.2101593017578	2037.211181640625	377.7911071777344	-488.2300109863281	2058.16552734375	279.0248107910156	-471.5789184570312	1612.83154296875	430.8327331542969	-208.2173919677734	2210.90283203125	85.59984588623047	-482.3823852539062	1608.137451171875	517.2401733398438	-202.5411224365234	2058.43701171875	46.938232421875	-346.073486328125	1509.867797851562	433.8236083984375	-225.6938171386719	1513.357177734375	513.5254516601562	-220.3970794677734	2070.315673828125	97.79693603515624	-439.161865234375	1343.405029296875	485.6078796386719	-248.8289642333984	1238.30078125	300.8429870605469	-285.4713134765625	1337.15966796875	541.73291015625	-313.40966796875	1311.489624023438	532.5589599609375	-341.1134338378906	1315.86376953125	549.4680786132812	-281.8465881347656	2041.404663085938	33.13815307617188	-395.8384399414062
230	1.145	1831.432250976562	1410.463256835938	-544.4680786132812	1944.14892578125	1413.0537109375	-273.2375183105469	1868.547607421875	958.5200805664062	-510.1439208984375	1923.707275390625	960.3511352539062	-240.8868713378906	1917.178344726562	910.3215942382812	-485.7645568847656	2041.843383789062	63.38554382324219	-369.5516967773438	1944.150268554688	915.7142333984376	-258.640869140625	1782.744506835938	832.7042236328125	-523.144775390625	1794.21630859375	876.0474243164062	-190.439453125	1758.130126953125	959.85498046875	-362.4790344238281	1950.151733398438	629.70166015625	-527.3602294921875	1995.354736328125	261.2196044921875	-457.7373657226562	1886.329467773438	602.0921630859375	-491.5771484375	2003.804443359375	549.876953125	-498.9527893066406	1269.318115234375	381.72119140625	-227.1991577148438	1975.911987304688	357.002197265625	-478.2288513183594	1934.238159179688	519.2384643554688	-472.9234313964844	1863.107299804688	609.4523315429688	-202.4916229248047	2285.16357421875	121.7388305664062	-433.2769775390625	1789.800415039062	632.2296142578125	-186.9314880371094	1836.028442382812	512.5018310546875	-219.6262664794922	1756.3271484375	536.749755859375	-202.1965942382812	2008.677856445312	478.10693359375	-487.8811645507812	1752.290405273438	466.8317565917969	-204.1260681152344	2055.281494140625	372.7315063476562	-487.4902954101562	2074.232177734375	272.7026977539062	-470.1969299316406	1641.562744140625	426.3694458007812	-207.5421905517578	2220.194580078125	74.93020629882812	-478.1565246582031	1638.7666015625	513.2581176757812	-202.5502319335938	2063.59619140625	45.16863632202148	-342.1794738769531	1538.5927734375	431.8944702148438	-225.5115356445312	1543.786987304688	511.9482116699219	-219.9742736816406	2081.2734375	92.2247314453125	-436.4852294921875	1373.6796875	488.3758544921875	-248.885009765625	1265.145141601562	305.4911499023438	-284.6179504394531	1368.27880859375	543.8771362304688	-314.5012512207031	1342.8173828125	535.0552978515625	-341.8545532226562	1346.958251953125	552.7584228515625	-282.5252990722656	2046.629638671875	34.20202255249023	-393.74951171875
231	1.15	1853.117797851562	1404.201293945312	-545.7408447265625	1964.716430664062	1408.133911132812	-273.6938781738281	1888.945922851562	953.7088623046876	-510.4841918945312	1944.485473632812	955.529296875	-241.2846374511719	1936.88623046875	906.1109619140624	-486.4378051757812	2048.939453125	63.26949691772461	-368.2883605957031	1965.144653320312	911.2413940429688	-259.3681335449219	1801.424926757812	827.7047729492188	-521.6229858398438	1816.45849609375	869.9363403320312	-188.9438781738281	1778.5400390625	955.0067749023438	-361.6471252441406	1972.176879882812	626.6567993164062	-525.336669921875	2010.804077148438	257.452880859375	-457.2655029296875	1907.465209960938	597.989990234375	-493.56982421875	2025.238159179688	547.158935546875	-498.1112060546875	1298.277465820312	385.7001953125	-227.0353240966797	1994.376098632812	353.7953491210938	-478.6871643066406	1956.441528320312	514.857666015625	-473.9093933105469	1888.78466796875	604.3174438476562	-202.2227783203125	2295.564453125	104.3497009277344	-428.8045349121094	1815.10546875	625.8175048828125	-186.5821838378906	1863.956787109375	506.5716552734375	-218.7470550537109	1783.75537109375	529.62353515625	-200.9206085205078	2030.185180664062	474.543212890625	-487.5787658691406	1781.180908203125	460.2183532714844	-202.5238494873047	2074.62451171875	366.3525390625	-485.4077758789062	2090.211669921875	267.2891540527344	-467.6140441894531	1670.615478515625	421.7112121582031	-206.9262084960938	2228.00830078125	61.72710800170898	-473.7462158203125	1669.725952148438	508.7639770507812	-202.2328491210938	2068.646728515625	42.44975662231445	-341.6939697265625	1567.811401367188	430.0422058105469	-224.7779846191406	1574.841918945312	509.6394653320312	-219.9610443115234	2090.7099609375	87.01539611816406	-434.0770568847656	1404.389526367188	490.3451538085938	-248.6975250244141	1292.805786132812	309.218505859375	-283.5144958496094	1401.19921875	544.4841918945312	-309.4149169921875	1374.234130859375	536.957763671875	-342.6783752441406	1378.922119140625	554.8790893554688	-283.1514587402344	2051.4482421875	34.19626617431641	-393.7969055175781
232	1.155	1875.304321289062	1397.919067382812	-547.4525756835938	1984.74853515625	1403.187866210938	-273.6387939453125	1906.93408203125	949.2211303710938	-510.7318420410156	1965.506103515625	950.5149536132812	-241.3267211914062	1956.578125	902.0195922851562	-487.2058715820312	2054.4482421875	62.93058013916016	-367.53369140625	1985.919311523438	906.186279296875	-260.0616149902344	1820.373657226562	822.5463256835938	-520.0264282226562	1838.692749023438	863.7740478515625	-188.2715606689453	1798.748657226562	950.2186889648438	-360.8113708496094	1993.993286132812	623.4984130859375	-524.3552856445312	2025.842163085938	253.6590423583984	-455.5823974609375	1928.842651367188	593.4370727539062	-493.9620971679688	2047.257080078125	543.6956176757812	-498.1896057128906	1327.96875	388.8989562988281	-226.6089019775391	2015.803344726562	349.6836547851562	-475.7702026367188	1978.568359375	511.01025390625	-474.6446533203125	1914.754028320312	599.2985229492188	-201.7859191894531	2305.740966796875	86.49808502197266	-424.4303283691406	1840.468627929688	619.0679321289062	-185.7447357177734	1892.005126953125	501.4955749511719	-217.9947814941406	1811.355224609375	522.322998046875	-200.5875396728516	2051.178955078125	470.5263977050781	-487.2651977539062	1810.608154296875	453.2131958007812	-201.2561645507812	2093.0087890625	360.9428100585938	-484.3818359375	2105.825439453125	261.5455627441406	-465.1135864257812	1700.1318359375	417.5447998046875	-205.3699493408203	2235.7548828125	49.84234619140625	-470.6151428222656	1701.3349609375	504.1973266601562	-201.8790740966797	2072.103271484375	40.47843170166016	-341.0536193847656	1597.76171875	427.2085571289062	-224.6450653076172	1605.879760742188	506.7686767578125	-219.8983917236328	2098.165283203125	83.54136657714844	-433.2270812988281	1436.055419921875	491.9291687011719	-248.9038543701172	1321.252563476562	312.3219909667969	-282.5507507324219	1433.336059570312	545.4571533203125	-310.0932922363281	1406.608642578125	537.80810546875	-342.9993896484375	1411.339111328125	556.7035522460938	-283.9043884277344	2054.98779296875	34.18061065673828	-392.5975341796875
